<?xml version="1.0" standalone="no"?><!DOCTYPE svg PUBLIC "-//W3C//DTD SVG 1.1//EN" "http://www.w3.org/Graphics/SVG/1.1/DTD/svg11.dtd"><svg t="1532484986714" class="icon" style="" viewBox="0 0 1024 1024" version="1.1" xmlns="http://www.w3.org/2000/svg" p-id="8579" xmlns:xlink="http://www.w3.org/1999/xlink" width="200" height="200"><defs><style type="text/css"></style></defs><path d="M755.712 557.056V742.4h-481.28v-185.344h126.976c3.072 0 5.632 2.56 5.632 5.632 4.608 57.344 52.224 102.4 110.592 102.4 58.368 0 105.984-45.056 110.592-102.4 0-3.072 2.56-5.632 5.632-5.632h121.856m12.288-12.288h-145.408c-3.584 0-6.144 3.072-5.632 6.656v3.072c0 54.272-44.544 98.816-98.816 98.816-54.272 0-98.816-44.544-98.816-98.816v-3.072c0-3.072-2.56-6.144-5.632-6.144H262.144v209.92H768v-210.432z m-95.744-187.904v111.104H369.664c-3.072 0-5.632-2.56-5.632-5.632V362.496c0-3.072 2.56-5.632 5.632-5.632h302.592m12.288-12.288H357.376c-3.072 0-5.632 2.56-5.632 5.632v123.904c0 3.072 2.56 5.632 5.632 5.632h327.168V344.576z m0 0" p-id="8580" fill="#aaaaaa"></path><path d="M353.28 476.672l-25.088 69.632c-1.024 3.072 0.512 6.144 3.584 7.68h0.512c3.072 1.024 6.656-0.512 7.68-3.584l25.088-69.632c1.024-3.072-0.512-6.144-3.584-7.68h-0.512c-3.072-1.536-6.656 0.512-7.68 3.584z m-3.584-128l-87.552 196.096 12.288 4.096L360.448 353.28c1.536-3.584-0.512-7.168-4.096-8.192-3.072-0.512-5.632 1.024-6.656 3.584z m334.848-4.096l-9.728 3.072 81.408 201.728 11.776-4.096-83.456-200.704z m-1.024 130.56l-12.288 3.584 20.992 71.68 12.288-3.072-20.992-72.192z m75.264-182.784l10.24-9.728c35.328-32.256 29.696-117.76 29.184-118.272v-2.048l1.024-1.024c11.776-8.192 28.16-35.328 28.16-35.328l4.096-6.656 1.024 7.168c26.624 130.048-60.928 160.256-61.952 161.28l-11.776 4.608z m45.568-126.976c0.512 11.776 3.072 74.752-21.504 110.592 21.504-12.8 62.464-50.176 46.08-140.288-5.632 8.704-15.872 23.04-24.576 29.696z m-134.144 139.264l-5.12-3.584 2.048-2.048c9.216-12.288 9.216-41.472 8.192-51.712l-1.024-12.8L680.96 245.76c14.848 24.064-2.56 50.176-8.704 57.344l-2.048 1.536zM182.784 389.632s34.304 26.624 57.344 24.064l-6.656 27.648c-0.512 0.512-40.448-20.992-50.688-51.712z m534.528 513.536c-5.12 0-9.216-0.512-13.824-2.048-15.872-3.584-25.088-13.824-29.184-18.432-14.848 8.192-29.696 9.216-45.056 5.12-44.544-12.288-75.264-70.144-76.288-72.704l-4.096-7.168 8.192 3.072c15.872 6.656 74.24 5.12 79.36 4.096 18.432-6.144 27.136-13.824 27.136-13.824l2.56-2.56 2.048 3.072c53.248 87.04 101.376 75.776 101.888 75.776l18.432-5.12-16.896 10.24c-19.456 14.336-38.4 20.48-54.272 20.48z m-40.448-27.648l2.048 2.56s8.704 13.824 26.624 17.92c15.36 3.584 33.28 0 53.76-10.24-18.432-2.048-54.784-14.336-93.696-75.776-4.096 3.072-12.8 8.704-26.624 12.8h-0.512c-2.56 0-51.2 2.048-74.752-3.072 9.216 15.36 35.84 53.76 69.12 62.976 14.848 4.096 29.184 2.56 43.008-6.144l1.024-1.024z m0 0" p-id="8581" fill="#aaaaaa"></path></svg>